<svg width="1400" height="820" viewBox="0 0 1400 820" fill="none" xmlns="http://www.w3.org/2000/svg">
  <rect width="1400" height="820" rx="30" fill="#0B1220"/>
  <rect x="36" y="36" width="1328" height="748" rx="26" fill="#101826" stroke="#22324A"/>
  <text x="72" y="92" fill="#E5E7EB" font-size="30" font-family="Arial" font-weight="700">Rubab's Digital Growth System</text>
  <text x="72" y="122" fill="#94A3B8" font-size="16" font-family="Arial">Websites, AI agents, automation, and digital marketing working together as one service-business machine</text>

  <rect x="72" y="174" width="280" height="520" rx="24" fill="#111827" stroke="#22324A"/>
  <circle cx="212" cy="248" r="40" fill="#FBBF24" fill-opacity="0.18" stroke="#FCD34D"/>
  <text x="182" y="254" fill="#FEF3C7" font-size="15" font-family="Arial" font-weight="700">Web</text>
  <text x="134" y="332" fill="#F8FAFC" font-size="24" font-family="Arial" font-weight="700">Website Design</text>
  <text x="114" y="366" fill="#CBD5E1" font-size="15" font-family="Arial">Trust, clarity, first impression, enquiries</text>
  <rect x="112" y="410" width="126" height="10" rx="5" fill="#FCD34D"/>
  <rect x="112" y="432" width="170" height="10" rx="5" fill="#334155"/>

  <rect x="394" y="174" width="280" height="520" rx="24" fill="#111827" stroke="#22324A"/>
  <circle cx="534" cy="248" r="40" fill="#A78BFA" fill-opacity="0.18" stroke="#C4B5FD"/>
  <text x="498" y="254" fill="#EDE9FE" font-size="15" font-family="Arial" font-weight="700">AI</text>
  <text x="470" y="332" fill="#F8FAFC" font-size="24" font-family="Arial" font-weight="700">AI Agents</text>
  <text x="442" y="366" fill="#CBD5E1" font-size="15" font-family="Arial">Answer, qualify, guide, support</text>
  <rect x="442" y="410" width="118" height="10" rx="5" fill="#C4B5FD"/>
  <rect x="442" y="432" width="160" height="10" rx="5" fill="#334155"/>

  <rect x="716" y="174" width="280" height="520" rx="24" fill="#111827" stroke="#22324A"/>
  <circle cx="856" cy="248" r="40" fill="#34D399" fill-opacity="0.18" stroke="#6EE7B7"/>
  <text x="800" y="254" fill="#D1FAE5" font-size="15" font-family="Arial" font-weight="700">Automation</text>
  <text x="780" y="332" fill="#F8FAFC" font-size="24" font-family="Arial" font-weight="700">AI Workflows</text>
  <text x="760" y="366" fill="#CBD5E1" font-size="15" font-family="Arial">n8n, CRM, follow-up, reporting</text>
  <rect x="760" y="410" width="136" height="10" rx="5" fill="#6EE7B7"/>
  <rect x="760" y="432" width="174" height="10" rx="5" fill="#334155"/>

  <rect x="1038" y="174" width="280" height="520" rx="24" fill="#111827" stroke="#22324A"/>
  <circle cx="1178" cy="248" r="40" fill="#F472B6" fill-opacity="0.18" stroke="#F9A8D4"/>
  <text x="1132" y="254" fill="#FCE7F3" font-size="15" font-family="Arial" font-weight="700">Growth</text>
  <text x="1082" y="332" fill="#F8FAFC" font-size="24" font-family="Arial" font-weight="700">Marketing</text>
  <text x="1074" y="366" fill="#CBD5E1" font-size="15" font-family="Arial">Traffic, funnels, remarketing, ROI</text>
  <rect x="1074" y="410" width="120" height="10" rx="5" fill="#F9A8D4"/>
  <rect x="1074" y="432" width="164" height="10" rx="5" fill="#334155"/>

  <path d="M352 434H394" stroke="#475569" stroke-width="4" stroke-linecap="round"/>
  <path d="M674 434H716" stroke="#475569" stroke-width="4" stroke-linecap="round"/>
  <path d="M996 434H1038" stroke="#475569" stroke-width="4" stroke-linecap="round"/>
</svg>
