<svg width="1200" height="760" viewBox="0 0 1200 760" fill="none" xmlns="http://www.w3.org/2000/svg">
  <rect width="1200" height="760" rx="28" fill="#0B1220"/>
  <rect x="36" y="36" width="1128" height="688" rx="24" fill="#101826" stroke="#22324A"/>
  <text x="76" y="96" fill="#E5E7EB" font-size="28" font-family="Arial" font-weight="700">Digital Marketing Funnel Proof</text>
  <text x="76" y="126" fill="#94A3B8" font-size="16" font-family="Arial">Traffic, lead capture, remarketing, and reporting systems for service businesses</text>

  <rect x="76" y="184" width="220" height="420" rx="22" fill="#111827" stroke="#22324A"/>
  <circle cx="186" cy="256" r="42" fill="#EC4899" fill-opacity="0.18" stroke="#F472B6"/>
  <text x="142" y="264" fill="#FCE7F3" font-size="16" font-family="Arial" font-weight="700">Traffic</text>
  <text x="112" y="336" fill="#F8FAFC" font-size="22" font-family="Arial" font-weight="700">Ads & Content</text>
  <text x="110" y="366" fill="#CBD5E1" font-size="15" font-family="Arial">Meta, Google, creatives</text>
  <rect x="110" y="404" width="100" height="10" rx="5" fill="#F472B6"/>
  <rect x="110" y="426" width="132" height="10" rx="5" fill="#334155"/>

  <rect x="338" y="184" width="220" height="420" rx="22" fill="#111827" stroke="#22324A"/>
  <circle cx="448" cy="256" r="42" fill="#F59E0B" fill-opacity="0.18" stroke="#FBBF24"/>
  <text x="406" y="264" fill="#FEF3C7" font-size="16" font-family="Arial" font-weight="700">Landing</text>
  <text x="390" y="336" fill="#F8FAFC" font-size="22" font-family="Arial" font-weight="700">Lead Capture</text>
  <text x="372" y="366" fill="#CBD5E1" font-size="15" font-family="Arial">Forms, offers, booking flow</text>
  <rect x="372" y="404" width="104" height="10" rx="5" fill="#FBBF24"/>
  <rect x="372" y="426" width="140" height="10" rx="5" fill="#334155"/>

  <rect x="600" y="184" width="220" height="420" rx="22" fill="#111827" stroke="#22324A"/>
  <circle cx="710" cy="256" r="42" fill="#10B981" fill-opacity="0.18" stroke="#34D399"/>
  <text x="664" y="264" fill="#D1FAE5" font-size="16" font-family="Arial" font-weight="700">Follow-up</text>
  <text x="664" y="336" fill="#F8FAFC" font-size="22" font-family="Arial" font-weight="700">Remarketing</text>
  <text x="644" y="366" fill="#CBD5E1" font-size="15" font-family="Arial">Email, WhatsApp, retargeting</text>
  <rect x="644" y="404" width="112" height="10" rx="5" fill="#34D399"/>
  <rect x="644" y="426" width="148" height="10" rx="5" fill="#334155"/>

  <rect x="862" y="184" width="220" height="420" rx="22" fill="#111827" stroke="#22324A"/>
  <circle cx="972" cy="256" r="42" fill="#60A5FA" fill-opacity="0.18" stroke="#93C5FD"/>
  <text x="932" y="264" fill="#DBEAFE" font-size="16" font-family="Arial" font-weight="700">Reports</text>
  <text x="928" y="336" fill="#F8FAFC" font-size="22" font-family="Arial" font-weight="700">KPI Review</text>
  <text x="912" y="366" fill="#CBD5E1" font-size="15" font-family="Arial">Leads, CPL, bookings, ROI</text>
  <rect x="912" y="404" width="96" height="10" rx="5" fill="#93C5FD"/>
  <rect x="912" y="426" width="130" height="10" rx="5" fill="#334155"/>

  <path d="M296 392H338" stroke="#475569" stroke-width="4" stroke-linecap="round"/>
  <path d="M558 392H600" stroke="#475569" stroke-width="4" stroke-linecap="round"/>
  <path d="M820 392H862" stroke="#475569" stroke-width="4" stroke-linecap="round"/>
</svg>
